<svg xmlns="http://www.w3.org/2000/svg" viewBox="0 0 1440 320">
  <path fill="#9c27b0" fill-opacity="1" d="M0,0L30,5.3C60,11,120,21,180,53.3C240,85,300,139,360,138.7C420,139,480,85,540,64C600,43,660,53,720,90.7C780,128,840,192,900,181.3C960,171,1020,85,1080,53.3C1140,21,1200,43,1260,74.7C1320,107,1380,149,1410,170.7L1440,192L1440,320L1410,320C1380,320,1320,320,1260,320C1200,320,1140,320,1080,320C1020,320,960,320,900,320C840,320,780,320,720,320C660,320,600,320,540,320C480,320,420,320,360,320C300,320,240,320,180,320C120,320,60,320,30,320L0,320Z"></path>
</svg>